<?xml version="1.0" standalone="no"?><!DOCTYPE svg PUBLIC "-//W3C//DTD SVG 1.1//EN" "http://www.w3.org/Graphics/SVG/1.1/DTD/svg11.dtd"><svg class="icon" width="210px" height="210.00px" viewBox="0 0 1024 1024" version="1.1" xmlns="http://www.w3.org/2000/svg"><path d="M345.221517 253.713655L815.175548 525.042158 345.221517 796.370662V253.713655z" fill="#d81e06" /><path d="M511.992791 1023.999889A511.992791 511.992791 0 1 1 711.116473 40.143473a29.626394 29.626394 0 0 1-23.067351 54.575664A449.903286 449.903286 0 0 0 511.992791 59.267095C262.347873 59.267095 59.252787 262.362182 59.252787 512.007099S262.347873 964.747102 511.992791 964.747102 964.732794 761.652016 964.732794 512.007099a449.446644 449.446644 0 0 0-85.544309-264.907838 29.626394 29.626394 0 0 1 48.016621-34.704808A511.840577 511.840577 0 0 1 511.992791 1023.999889z" fill="#ffffff" /></svg>