<?xml version="1.0" standalone="no"?><!DOCTYPE svg PUBLIC "-//W3C//DTD SVG 1.1//EN" "http://www.w3.org/Graphics/SVG/1.1/DTD/svg11.dtd"><svg class="icon" width="200px" height="200.00px" viewBox="0 0 1024 1024" version="1.1" xmlns="http://www.w3.org/2000/svg"><path d="M809.068266 126.803757l4.046144 0.12689 3.981677 0.25685 3.916185 0.321317 3.980653 0.449231 3.851717 0.512675 3.920278 0.578167 3.787249 0.708126 3.851716 0.83297 3.724827 0.833993 3.789296 0.963952 3.659335 1.091866 3.658313 1.156333 3.599984 1.218756 3.593844 1.28527 3.530399 1.347691 3.53347 1.477651 3.402486 1.541097 3.402486 1.60454 3.338018 1.734501 3.341088 1.733477 3.210105 1.86139 3.210106 1.926882 3.147683 1.925859 3.145637 2.055818 3.017724 2.182707 2.955302 2.183731 2.952233 2.24513 2.890834 2.312667 2.825343 2.376112 2.695383 2.440581 2.698453 2.504025 2.631938 2.568493 2.568494 2.631939 2.504025 2.698453 2.440581 2.760874 2.311644 2.823297 2.31062 2.826366 2.247176 2.953255 2.120287 2.95428 2.053771 3.017723 1.989303 3.017724 1.927905 3.146661 1.862414 3.145637 1.797945 3.212151 1.670033 3.274574 1.603517 3.27355 1.543143 3.339041 1.411136 3.402486 1.346669 3.405557 1.28527 3.466954 1.219778 3.530399 1.092889 3.531423 1.026374 3.533469 0.899484 3.658313 0.831947 3.596914 0.708126 3.659335 0.640589 3.724828 0.578166 3.72278 0.449231 3.789295 0.321317 3.788272 0.25685 3.85274 0.192381 3.787249v478.628005l-0.192381 3.853764-0.25685 3.788272-0.321317 3.788271-0.449231 3.787249-0.578166 3.726874-0.640589 3.72278-0.708126 3.661383-0.831947 3.660359-0.899484 3.59282-1.026374 3.531423-1.092889 3.597938-1.219778 3.465931-1.28527 3.467977-1.346669 3.40351-1.411136 3.402486-1.543143 3.341088-1.603517 3.27355-1.670033 3.27355-1.797945 3.213175-1.862414 3.143591-1.927905 3.14666-1.989303 3.017724-2.053771 3.018747-2.120287 2.952233-2.247176 2.953256-2.31062 2.827389-2.311644 2.825343-2.440581 2.762921-2.504025 2.695383-2.568494 2.632962-2.631938 2.568493-2.698453 2.503002-2.695383 2.442627-2.825343 2.372019-2.890834 2.313691-2.952233 2.246152-2.955302 2.186801-3.017724 2.180661-3.145637 2.054795-3.147683 1.926882-3.210106 1.925858-3.210105 1.861391-3.341088 1.735523-3.338018 1.730408-3.402486 1.606587-3.402486 1.540073-3.53347 1.478675-3.530399 1.346668-3.593844 1.284247-3.599984 1.219778-3.658313 1.156334-3.659335 1.090842-3.789296 0.964976-3.724827 0.831946-3.851716 0.835016-3.787249 0.70608-3.920278 0.57919-3.851717 0.513699-3.980653 0.449231-3.916185 0.31927-3.981677 0.25685-4.046144 0.128936-4.044098 0.063445H219.036207l-4.045121-0.063445-3.981676-0.128936-4.044098-0.25685-3.917209-0.31927-3.981676-0.449231-3.85274-0.513699-3.915162-0.57919-3.790319-0.70608-3.851716-0.835016-3.725851-0.831946-3.787249-0.964976-3.658312-1.090842-3.660359-1.156334-3.597937-1.219778-3.595891-1.284247-3.529376-1.346668-3.470024-1.478675-3.466955-1.540073-3.403509-1.606587-3.339042-1.730408-3.339041-1.735523-3.208059-1.861391-3.212152-1.925858-3.14666-1.926882-3.144614-2.054795-3.017724-2.180661-3.01977-2.186801-2.888788-2.246152-2.889811-2.313691-2.826366-2.372019-2.695383-2.442627-2.69743-2.503002-2.630915-2.568493-2.571563-2.632962-2.501979-2.695383-2.441603-2.762921-2.375089-2.825343-2.24513-2.827389-2.248199-2.953256-2.118239-2.952233-2.057865-3.018747-2.053771-3.017724-1.925859-3.14666-1.798969-3.143591-1.796922-3.213175-1.669009-3.27355-1.605564-3.27355-1.540073-3.341088-1.476628-3.402486-1.348714-3.40351-1.28527-3.467977-1.154288-3.465931-1.092888-3.597938-1.027398-3.531423-0.899484-3.59282-0.83297-3.660359-0.771571-3.661383-0.641612-3.72278-0.512675-3.726874-0.450254-3.787249-0.386809-3.788271-0.256849-3.788272-0.12689-3.853764-0.064468-3.854787V276.606276l0.064468-3.918232 0.12689-3.787249 0.256849-3.85274 0.386809-3.788272 0.450254-3.789295 0.512675-3.72278 0.641612-3.724828 0.771571-3.659335 0.83297-3.596914 0.899484-3.658313 1.027398-3.533469 1.092888-3.531423 1.154288-3.530399 1.28527-3.466954 1.348714-3.405557 1.476628-3.402486 1.540073-3.339041 1.605564-3.27355 1.669009-3.274574 1.796922-3.212151 1.798969-3.145637 1.925859-3.146661 2.053771-3.017724 2.057865-3.017723 2.118239-2.95428 2.248199-2.953255 2.24513-2.826366 2.375089-2.823297 2.441603-2.760874 2.501979-2.698453 2.571563-2.631939 2.630915-2.568493 2.69743-2.504025 2.695383-2.440581 2.826366-2.376112 2.889811-2.312667 2.888788-2.24513 3.01977-2.183731 3.017724-2.182707 3.144614-2.055818 3.14666-1.925859 3.212152-1.926882 3.208059-1.86139 3.339041-1.733477 3.339042-1.734501 3.403509-1.60454 3.466955-1.541097 3.470024-1.477651 3.529376-1.347691 3.595891-1.28527 3.597937-1.218756 3.660359-1.156333 3.658312-1.091866 3.787249-0.963952 3.725851-0.833993 3.851716-0.83297 3.790319-0.708126 3.915162-0.578167 3.85274-0.512675 3.981676-0.449231 3.917209-0.321317 4.044098-0.25685 3.981676-0.12689 4.045121-0.066514h585.987961l4.044098 0.066514z m-589.646273 64.145821h-2.890834l-2.438534 0.127913-2.44058 0.12689-2.439557 0.193405-2.377136 0.256849-2.375089 0.321317-2.311644 0.386809-2.312667 0.448208-2.311645 0.451277-2.246152 0.512675-2.247176 0.641612-2.246153 0.578167-2.184754 0.707103-2.184754 0.705056-2.116193 0.770548-2.11824 0.833993-2.057865 0.899485-2.053771 0.898461-2.052748 0.963952-1.99135 1.026374-1.99135 1.026374-1.925858 1.093912-1.861391 1.154288-1.86446 1.156333-1.860367 1.219779-1.799992 1.286293-1.796922 1.281177-1.669009 1.350761-1.7345 1.347692-1.604541 1.413183-1.604541 1.41216-1.607611 1.476628-1.540073 1.476627-1.476628 1.540073-1.475604 1.605564-1.347692 1.54212-1.413183 1.669009-1.283223 1.605564-1.28527 1.669009-1.218756 1.734501-1.220801 1.669009-1.091866 1.798968-1.092889 1.732454-1.089819 1.798969-0.963952 1.796922-0.96293 1.863437-0.899484 1.796922-0.833993 1.926882-0.835016 1.860367-0.769525 1.926882-0.70608 1.926881-0.644681 1.925859-0.57612 1.925858-0.578167 1.99135-0.513699 1.990327-0.450254 1.991349-0.448207 2.052749-0.321317 2.055818-0.319271 2.053771-0.258896 2.120286-0.192381 2.053772-0.12689 2.120286-0.067538 2.182708-0.062422 2.56747V747.012032l0.062422 2.57054 0.067538 2.181684 0.12689 2.12131 0.192381 2.117216 0.258896 2.053772 0.319271 2.056841 0.321317 2.054795 0.448207 2.053771 0.450254 1.99135 0.513699 1.987257 0.578167 1.992373 0.57612 1.926882 0.644681 1.990326 0.70608 1.862414 0.769525 1.925858 0.835016 1.925858 0.833993 1.862414 0.899484 1.797945 0.96293 1.862414 0.963952 1.798969 1.089819 1.794875 1.092889 1.736547 1.091866 1.796922 1.220801 1.66901 1.218756 1.7345 1.28527 1.669009 1.283223 1.603518 1.413183 1.670032 1.348715 1.541096 1.475605 1.605564 1.476627 1.541096 1.540073 1.476628 1.543143 1.476628 1.669009 1.41216 1.604541 1.41216 1.7345 1.350761 1.669009 1.344622 1.796923 1.286293 1.799992 1.283224 1.797945 1.218755 1.926882 1.15838 1.86139 1.154287 1.925858 1.091866 1.99135 1.027397 1.99135 1.027397 2.052748 0.964976 2.053772 0.899485 2.057864 0.897437 2.11824 0.83297 2.116193 0.772595 2.184754 0.705056 2.184755 0.70608 2.246152 0.57612 2.247176 0.642635 2.246153 0.513699 2.311644 0.44923 2.312667 0.449231 2.311644 0.383739 2.375089 0.321318 2.377136 0.256849 2.439557 0.193404 2.44058 0.12689 2.438534 0.127913H807.529216l2.439557-0.127913 2.440581-0.12689 2.439557-0.193404 2.375089-0.256849 2.376112-0.321318 2.312667-0.383739 2.312668-0.449231 2.31062-0.44923 2.247176-0.513699 2.246153-0.642635 2.248199-0.57612 2.182708-0.70608 2.183731-0.705056 2.117216-0.772595 2.119263-0.83297 2.055818-0.897437 2.054795-0.899485 2.054795-0.964976 1.989303-1.027397 1.99135-1.027397 1.926882-1.091866 1.86139-1.154287 1.860367-1.15838 1.863437-1.218755 1.796922-1.283224 1.7345-1.286293 1.733478-1.344622 1.733477-1.350761 1.605564-1.41216 1.604541-1.41216 1.603518-1.476628 1.542119-1.476628 1.475605-1.541096 1.413183-1.542119 1.412159-1.604541 1.350762-1.603518 1.344621-1.670032 1.287317-1.669009 1.218755-1.671056 1.154287-1.732454 1.156334-1.735523 1.091866-1.797946 1.027397-1.794875 1.027397-1.798969 0.96293-1.799992 0.899484-1.860367 0.833993-1.862414 0.835016-1.925858 0.705057-1.86139 0.705056-1.926882 0.70608-1.990326 0.577143-1.926882 0.578167-1.992373 0.513699-1.987257 0.448207-1.99135 0.385786-2.053771 0.387832-2.054795 0.25685-2.056841 0.256849-2.053772 0.192381-2.117216 0.193405-2.12131 0.064468-2.181684V274.422545l-0.064468-2.182708-0.193405-2.120286-0.192381-2.053772-0.256849-2.120286-0.25685-2.053771-0.387832-2.055818-0.385786-2.052749-0.448207-1.991349-0.513699-1.990327-0.578167-1.99135-0.577143-1.925858-0.70608-1.99135-0.705056-1.925859-0.705057-1.862413-0.835016-1.925859-0.833993-1.86139-0.899484-1.796922-0.96293-1.863437-1.027397-1.796922-1.027397-1.798969-1.091866-1.796922-1.156334-1.7345-1.154287-1.733477-1.218755-1.670033-1.287317-1.669009-1.344621-1.670032-1.350762-1.604541-1.412159-1.604541-1.413183-1.543143-1.475605-1.540073-1.542119-1.476627-1.603518-1.476628-1.604541-1.41216-1.605564-1.413183-1.733477-1.347692-1.733478-1.350761-1.7345-1.281177-1.796922-1.286293-1.863437-1.219779-1.860367-1.156333-1.86139-1.154288-1.926882-1.093912-1.99135-1.026374-1.989303-1.026374-2.054795-0.963952-2.054795-0.898461-2.055818-0.899485-2.119263-0.833993-2.117216-0.770548-2.183731-0.705056-2.182708-0.707103-2.248199-0.578167-2.246153-0.641612-2.247176-0.512675-2.31062-0.451277-2.312668-0.448208-2.312667-0.386809-2.376112-0.321317-2.375089-0.256849-2.439557-0.193405-2.440581-0.12689-2.439557-0.127913H219.421993z" fill="#ffffff" /><path d="M655.809026 467.284678L419.774713 331.004101a51.623648 51.623648 0 0 0-77.411936 44.723508v272.548875a51.599089 51.599089 0 0 0 25.798521 44.697925 51.625695 51.625695 0 0 0 51.613415 0.02763l236.03329-136.279554a51.637974 51.637974 0 0 0 25.824103-44.725555 51.628764 51.628764 0 0 0-25.82308-44.712252" fill="#ffffff" /></svg>