<?xml version="1.0" standalone="no"?><!DOCTYPE svg PUBLIC "-//W3C//DTD SVG 1.1//EN" "http://www.w3.org/Graphics/SVG/1.1/DTD/svg11.dtd"><svg class="icon" width="210px" height="210.00px" viewBox="0 0 1024 1024" version="1.1" xmlns="http://www.w3.org/2000/svg"><path d="M512 95.457627c229.676836 0 416.542373 186.865537 416.542373 416.542373s-186.865537 416.542373-416.542373 416.542373S95.457627 741.676836 95.457627 512 282.323164 95.457627 512 95.457627m0-92.564972C230.833898 2.892655 2.892655 230.833898 2.892655 512s227.941243 509.107345 509.107345 509.107345 509.107345-227.941243 509.107345-509.107345S793.166102 2.892655 512 2.892655z"  /><path d="M642.169492 688.451977c-11.859887 0-23.719774-4.628249-32.687006-13.59548l-130.169492-130.169491c-8.677966-8.677966-13.59548-20.537853-13.59548-32.687006V228.519774c0-25.455367 20.827119-46.282486 46.282486-46.282486s46.282486 20.827119 46.282486 46.282486v264.388701l116.574011 116.574011c18.223729 18.223729 18.223729 47.439548 0 65.374011-8.967232 9.256497-20.827119 13.59548-32.687005 13.59548z" fill="#d81e06" /></svg>