<?xml version="1.0" standalone="no"?><!DOCTYPE svg PUBLIC "-//W3C//DTD SVG 1.1//EN" "http://www.w3.org/Graphics/SVG/1.1/DTD/svg11.dtd"><svg class="icon" width="200px" height="200.00px" viewBox="0 0 1024 1024" version="1.1" xmlns="http://www.w3.org/2000/svg"><path d="M196.352 928h534.272c41.088 0 74.24-29.504 84.224-76.736l79.68-329.088a91.008 91.008 0 0 0-18.88-73.6 84.16 84.16 0 0 0-64.96-31.36H556.8l10.752-40.32c20.288-75.84 27.904-145.92 14.528-195.456-17.664-63.296-46.912-90.176-86.144-84.672-21.44 2.88-33.92 16.32-33.92 35.712-3.392 97.664-21.44 169.024-50.56 218.304-20.608 34.944-43.648 54.4-65.792 63.872l-12.608 2.56H196.352c-48.64 0-68.352 19.008-68.352 67.072v387.84c0 43.904 14.976 55.872 68.352 55.872z m614.4-574.784c44.096 0 85.952 20.096 114.432 54.848 28.48 34.752 40.384 80.768 32 127.36l-79.872 329.984C861.44 940.16 803.2 992 730.624 992H196.352C110.4 992 64 954.88 64 872.064V484.288c0-83.968 48.832-131.072 132.352-131.072h129.152c9.024-5.376 19.584-15.872 30.912-35.008 23.168-39.232 38.592-100.288 41.6-186.816 0-51.2 36.992-91.008 89.216-98.048 76.032-10.624 131.136 40 156.544 131.2 14.528 53.504 10.688 118.208-4.608 188.672h171.52z" fill="#ffffff" /><path d="M288 384h64v576H288z" fill="#ffffff" /></svg>