<?xml version="1.0" standalone="no"?><!DOCTYPE svg PUBLIC "-//W3C//DTD SVG 1.1//EN" "http://www.w3.org/Graphics/SVG/1.1/DTD/svg11.dtd"><svg class="icon" width="210px" height="179.95px" viewBox="0 0 1195 1024" version="1.1" xmlns="http://www.w3.org/2000/svg"><path d="M1195.347329 226.873666a227.066035 227.066035 0 0 0-411.22357-132.626274 480.479395 480.479395 0 0 0-186.484312-37.228428h-0.821215a485.885729 485.885729 0 0 0-185.663097 37.296862A228.708466 228.708466 0 0 0 304.602448 13.699856a226.997601 226.997601 0 0 0-177.929985 416.835208 483.558953 483.558953 0 1 0 942.002403 0 226.723862 226.723862 0 0 0 126.672463-203.661398zM240.137046 437.994437l21.693771-75.757113L187.716135 335.342522a115.175448 115.175448 0 1 1 139.606603-164.858975l38.870859 68.43461 71.171994-34.217305a372.558016 372.558016 0 0 1 320.547712 0l71.171994 34.217305 38.870859-68.776783A115.175448 115.175448 0 1 1 1007.494325 335.342522l-74.251552 26.894802L955.073414 437.994437a371.805235 371.805235 0 1 1-714.936368 0z" fill="#2c2c2c" /><path d="M597.639447 795.702142a268.26367 268.26367 0 0 0 191.06943-79.178844 42.224154 42.224154 0 1 0-59.674979-59.53811 185.8684 185.8684 0 0 1-262.925771 0 42.087285 42.087285 0 0 0-59.059068-0.547477l-0.615912 0.615911a42.224154 42.224154 0 0 0 0 59.67498 268.742713 268.742713 0 0 0 191.2063 78.97354z" fill="#d81e06" /></svg>