<?xml version="1.0" standalone="no"?><!DOCTYPE svg PUBLIC "-//W3C//DTD SVG 1.1//EN" "http://www.w3.org/Graphics/SVG/1.1/DTD/svg11.dtd"><svg class="icon" width="210px" height="210.00px" viewBox="0 0 1024 1024" version="1.1" xmlns="http://www.w3.org/2000/svg"><path d="M567.2 836.8c-1.6 10.4 1.6 21.6 10.4 30.4 6.4 7.2 16 11.2 26.4 11.2 11.2 0 20.8-5.6 28-13.6l363.2-398.4c8-8 11.2-17.6 10.4-28 0.8-10.4-2.4-20-10.4-28l-364.8-400c-14.4-14.4-37.6-14.4-52.8 0-8 8-11.2 19.2-10.4 30.4V256C264 256.8 18.4 502.4 18.4 805.6c0 77.6 16 152 45.6 218.4 43.2-228.8 261.6-402.4 502.4-402.4 0 12.8 0.8 215.2 0.8 215.2z m73.6-287.2v196.8l280-307.2-280-307.2v197.6s-91.2-0.8-110.4 0c-258.4 8-437.6 301.6-438.4 439.2 79.2-101.6 286.4-220 438.4-220 24 0 110.4 0.8 110.4 0.8z" fill="#cdcdcd" /></svg>