<?xml version="1.0" standalone="no"?><!DOCTYPE svg PUBLIC "-//W3C//DTD SVG 1.1//EN" "http://www.w3.org/Graphics/SVG/1.1/DTD/svg11.dtd"><svg class="icon" width="210px" height="210.00px" viewBox="0 0 1024 1024" version="1.1" xmlns="http://www.w3.org/2000/svg"><path d="M619.894 256H401.69M830.821 210.956H193.197c-35.346 0-64 28.654-64 64v474.088c0 35.346 28.654 64 64 64h637.624c35.346 0 64-28.654 64-64V274.956c0-35.346-28.654-64-64-64zM605.432 546.771l-82.595 47.686-82.595 47.686c-14.437 8.335-32.484-2.084-32.484-18.754V432.644c0-16.671 18.046-27.09 32.484-18.754l82.595 47.686 82.595 47.686c14.437 8.335 14.437 29.173 0 37.509z" fill="#8a8a8a" /></svg>