<?xml version="1.0" standalone="no"?><!DOCTYPE svg PUBLIC "-//W3C//DTD SVG 1.1//EN" "http://www.w3.org/Graphics/SVG/1.1/DTD/svg11.dtd"><svg class="icon" width="210px" height="210.00px" viewBox="0 0 1024 1024" version="1.1" xmlns="http://www.w3.org/2000/svg"><path d="M800.032273 127.991394H223.967727A95.976333 95.976333 0 0 0 127.991394 223.967727v32.015061h768.017212v-32.015061a95.976333 95.976333 0 0 0-95.976333-95.976333M632.314664 63.961272l14.114167 101.002353H377.295771L391.409937 63.961272h240.973577m7.711154-64.030122H384.18073a57.007463 57.007463 0 0 0-54.666577 47.575069l-18.727089 133.912459a40.69011 40.69011 0 0 0 41.309756 47.506219h320.012909a40.69011 40.69011 0 0 0 41.309756-47.575068L694.692396 47.43737a56.938614 56.938614 0 0 0-54.597728-47.50622m175.97956 320.01291H208.063471a57.55826 57.55826 0 0 0-58.246756 63.754723l52.46339 576.546494a71.603577 71.603577 0 0 0 69.813487 63.754723h480.019364a71.603577 71.603577 0 0 0 69.813488-63.754723l52.46339-576.546494a57.55826 57.55826 0 0 0-58.246756-63.754723m-431.962348 576.064546h-96.38943l-32.015061-448.004303h128.404491v448.004303z m192.021516 0H448.210852V448.004303H576.202246v448.004303z m160.006454 0H640.232367V448.004303h127.991394l-32.015061 448.004303z" fill="#acacac" /></svg>