<?xml version="1.0" standalone="no"?><!DOCTYPE svg PUBLIC "-//W3C//DTD SVG 1.1//EN" "http://www.w3.org/Graphics/SVG/1.1/DTD/svg11.dtd"><svg class="icon" width="210px" height="210.00px" viewBox="0 0 1024 1024" version="1.1" xmlns="http://www.w3.org/2000/svg"><path d="M923.28953 410.180242s68.519812-5.717095 68.519811 65.44794c0 0 0 102.566393-101.414441 447.256031 0 0-31.358693 101.073122-69.927753 101.073122H410.756218c-28.585476 0-101.371776-19.28453-101.371776-72.658306V410.180242S512 260.639807 512 69.799758C517.75976 59.773509 502.187076 0 577.746594 0c0 0 178.509895 19.967168 72.7863 410.180242h272.713971z m-725.815091 0.127995s41.512937-0.469314 41.640931 41.384942V1000.918295s0.213324 22.911045-29.225449 22.911045H68.583809s-34.814549 0-34.814549-34.643889L0.021332 443.373526s0.426649-33.065289 34.217241-33.065289h163.235866z" fill="#c0c0c0" /></svg>